<svg width="36" height="36" viewBox="0 0 36 36" fill="none" xmlns="http://www.w3.org/2000/svg">
<path d="M31.4355 24.1413V12.4709C31.435 11.9593 31.2999 11.4568 31.0439 11.0138C30.7878 10.5709 30.4198 10.2031 29.9767 9.94724L19.7652 4.11207C19.3216 3.856 18.8185 3.72119 18.3064 3.72119C17.7942 3.72119 17.2911 3.856 16.8476 4.11207L6.63604 9.94724C6.19295 10.2031 5.82492 10.5709 5.56888 11.0138C5.31283 11.4568 5.17777 11.9593 5.17725 12.4709V24.1413C5.17777 24.6529 5.31283 25.1554 5.56888 25.5984C5.82492 26.0413 6.19295 26.4092 6.63604 26.665L16.8476 32.5001C17.2911 32.7562 17.7942 32.891 18.3064 32.891C18.8185 32.891 19.3216 32.7562 19.7652 32.5001L29.9767 26.665C30.4198 26.4092 30.7878 26.0413 31.0439 25.5984C31.2999 25.1554 31.435 24.6529 31.4355 24.1413Z" stroke="#171717" style="stroke:#171717;stroke:color(display-p3 0.0883 0.0883 0.0883);stroke-opacity:1;" stroke-width="1.53846" stroke-linecap="round" stroke-linejoin="round"/>
<path d="M31.4352 18.3062L24.8706 22.099V29.6701" stroke="#171717" style="stroke:#171717;stroke:color(display-p3 0.0883 0.0883 0.0883);stroke-opacity:1;" stroke-width="1.53846" stroke-linecap="round" stroke-linejoin="round"/>
<path d="M11.7418 29.6701V22.099L5.17725 18.3062" stroke="#171717" style="stroke:#171717;stroke:color(display-p3 0.0883 0.0883 0.0883);stroke-opacity:1;" stroke-width="1.53846" stroke-linecap="round" stroke-linejoin="round"/>
<path d="M5.5708 10.9536L18.306 18.3205L31.0413 10.9536" stroke="#171717" style="stroke:#171717;stroke:color(display-p3 0.0883 0.0883 0.0883);stroke-opacity:1;" stroke-width="1.53846" stroke-linecap="round" stroke-linejoin="round"/>
<path d="M18.3066 33.0108V18.3062" stroke="#171717" style="stroke:#171717;stroke:color(display-p3 0.0883 0.0883 0.0883);stroke-opacity:1;" stroke-width="1.53846" stroke-linecap="round" stroke-linejoin="round"/>
<path d="M11.7417 6.94189L18.3063 10.7348L24.8708 6.94189" stroke="#171717" style="stroke:#171717;stroke:color(display-p3 0.0883 0.0883 0.0883);stroke-opacity:1;" stroke-width="1.53846" stroke-linecap="round" stroke-linejoin="round"/>
</svg>
