<svg width="36" height="36" viewBox="0 0 36 36" fill="none" xmlns="http://www.w3.org/2000/svg">
<path d="M31.4355 24.1408V12.4705C31.435 11.9588 31.2999 11.4563 31.0439 11.0134C30.7878 10.5704 30.4198 10.2026 29.9767 9.94675L19.7652 4.11158C19.3216 3.85551 18.8185 3.7207 18.3064 3.7207C17.7942 3.7207 17.2911 3.85551 16.8476 4.11158L6.63604 9.94675C6.19295 10.2026 5.82492 10.5704 5.56888 11.0134C5.31283 11.4563 5.17777 11.9588 5.17725 12.4705V24.1408C5.17777 24.6524 5.31283 25.1549 5.56888 25.5979C5.82492 26.0408 6.19295 26.4087 6.63604 26.6645L16.8476 32.4997C17.2911 32.7557 17.7942 32.8905 18.3064 32.8905C18.8185 32.8905 19.3216 32.7557 19.7652 32.4997L29.9767 26.6645C30.4198 26.4087 30.7878 26.0408 31.0439 25.5979C31.2999 25.1549 31.435 24.6524 31.4355 24.1408Z" stroke="#FEFEFE" style="stroke:#FEFEFE;stroke:color(display-p3 0.9951 0.9951 0.9951);stroke-opacity:1;" stroke-width="1.53846" stroke-linecap="round" stroke-linejoin="round"/>
<path d="M31.4352 18.3057L24.8706 22.0985V29.6697" stroke="#FEFEFE" style="stroke:#FEFEFE;stroke:color(display-p3 0.9951 0.9951 0.9951);stroke-opacity:1;" stroke-width="1.53846" stroke-linecap="round" stroke-linejoin="round"/>
<path d="M11.7418 29.6697V22.0985L5.17725 18.3057" stroke="#FEFEFE" style="stroke:#FEFEFE;stroke:color(display-p3 0.9951 0.9951 0.9951);stroke-opacity:1;" stroke-width="1.53846" stroke-linecap="round" stroke-linejoin="round"/>
<path d="M5.5708 10.9531L18.306 18.32L31.0413 10.9531" stroke="#FEFEFE" style="stroke:#FEFEFE;stroke:color(display-p3 0.9951 0.9951 0.9951);stroke-opacity:1;" stroke-width="1.53846" stroke-linecap="round" stroke-linejoin="round"/>
<path d="M18.3066 33.0103V18.3057" stroke="#FEFEFE" style="stroke:#FEFEFE;stroke:color(display-p3 0.9951 0.9951 0.9951);stroke-opacity:1;" stroke-width="1.53846" stroke-linecap="round" stroke-linejoin="round"/>
<path d="M11.7417 6.94141L18.3063 10.7343L24.8708 6.94141" stroke="#FEFEFE" style="stroke:#FEFEFE;stroke:color(display-p3 0.9951 0.9951 0.9951);stroke-opacity:1;" stroke-width="1.53846" stroke-linecap="round" stroke-linejoin="round"/>
</svg>
