<svg width="48" height="48" viewBox="0 0 48 48" fill="none" xmlns="http://www.w3.org/2000/svg">
<path fill-rule="evenodd" clip-rule="evenodd" d="M24.0001 38.3996C31.953 38.3996 38.4001 31.9525 38.4001 23.9996C38.4001 16.0467 31.953 9.59961 24.0001 9.59961C16.0472 9.59961 9.6001 16.0467 9.6001 23.9996C9.6001 31.9525 16.0472 38.3996 24.0001 38.3996ZM33.9553 31.6426C34.0369 31.7839 34.0249 31.9609 33.9218 32.0872C31.5746 34.9632 28.0018 36.7996 24.0001 36.7996C19.5104 36.7996 15.5606 34.4881 13.2759 30.9903C13.1074 30.7323 13.2979 30.3996 13.606 30.3996H23.8765C23.9164 30.4003 23.9562 30.4007 23.996 30.4007C24.5529 30.4016 25.1138 30.3297 25.6641 30.1812C26.2088 30.0349 26.7249 29.8185 27.202 29.5423C27.68 29.2668 28.1256 28.9274 28.5248 28.5281C28.9237 28.13 29.2629 27.6856 29.5386 27.2088C29.8208 26.7228 30.0409 26.1962 30.188 25.6399C30.2222 25.5113 30.3994 25.4835 30.4659 25.5988L33.9553 31.6426ZM12.032 28.5486C12.0899 28.701 12.2372 28.7996 12.4001 28.7996H19.3569C19.4988 28.7996 19.5679 28.621 19.4677 28.5204C19.0661 28.1183 18.7253 27.6691 18.4491 27.1871C18.1803 26.72 17.9687 26.2157 17.824 25.6838C17.6718 25.1271 17.5981 24.5593 17.599 23.9956C17.5988 23.4381 17.6716 22.8767 17.8212 22.3259C17.9664 21.7887 18.1797 21.2794 18.4515 20.808C18.4738 20.7691 18.4966 20.7304 18.5197 20.6919L24.0001 11.1996C16.9309 11.1996 11.2001 16.9304 11.2001 23.9996C11.2001 25.6017 11.4944 27.1351 12.032 28.5486ZM25.6423 11.5552C25.7238 11.4142 25.8832 11.3361 26.0439 11.3619C32.1417 12.3404 36.8001 17.626 36.8001 23.9996C36.8001 26.0851 36.3014 28.054 35.4167 29.7938C35.2772 30.0681 34.8943 30.069 34.7404 29.8025L29.6052 20.908C29.5826 20.8671 29.5596 20.8266 29.5362 20.7863C29.26 20.3094 28.9202 19.8649 28.5206 19.4669C28.1268 19.0737 27.6879 18.7388 27.2174 18.4658C26.7298 18.1817 26.2013 17.9603 25.6428 17.8124C25.0993 17.6677 24.5457 17.5977 23.996 17.5986C23.4467 17.5984 22.8938 17.669 22.3509 17.8141C22.2138 17.8506 22.0937 17.7016 22.1647 17.5787L25.6423 11.5552ZM26.4001 19.8427C27.139 20.2693 27.7303 20.8605 28.157 21.5996L28.1599 21.6047C28.5845 22.3422 28.8001 23.1488 28.8001 23.9996C28.8001 24.8523 28.5835 25.6608 28.157 26.3996C27.7304 27.1385 27.1388 27.73 26.4001 28.1565C25.6614 28.583 24.8532 28.7996 24.0001 28.7996L23.9952 28.7996C23.1438 28.7987 22.3375 28.5823 21.6001 28.1565C20.8615 27.7301 20.2695 27.1381 19.8432 26.3996C19.4167 25.661 19.2001 24.853 19.2001 23.9996C19.2001 23.1462 19.4167 22.3383 19.8432 21.5996L19.8512 21.5858C20.277 20.8537 20.866 20.2665 21.6001 19.8427C22.3389 19.4162 23.1471 19.1996 24.0001 19.1996C24.8529 19.1996 25.6614 19.4162 26.4001 19.8427Z" fill="#1F1D1C" style="fill:#1F1D1C;fill:color(display-p3 0.1216 0.1137 0.1098);fill-opacity:1;"/>
</svg>
