<svg width="48" height="48" viewBox="0 0 48 48" fill="none" xmlns="http://www.w3.org/2000/svg">
<path fill-rule="evenodd" clip-rule="evenodd" d="M24.0002 29.6002C27.093 29.6002 29.6002 27.093 29.6002 24.0002C29.6002 20.9074 27.093 18.4002 24.0002 18.4002C20.9074 18.4002 18.4002 20.9074 18.4002 24.0002C18.4002 27.093 20.9074 29.6002 24.0002 29.6002ZM24.0002 28.0002C26.2093 28.0002 28.0002 26.2093 28.0002 24.0002C28.0002 21.7911 26.2093 20.0002 24.0002 20.0002C21.7911 20.0002 20.0002 21.7911 20.0002 24.0002C20.0002 26.2093 21.7911 28.0002 24.0002 28.0002Z" fill="#1F1D1C" style="fill:#1F1D1C;fill:color(display-p3 0.1216 0.1137 0.1098);fill-opacity:1;"/>
<path d="M31.2002 18.4002C31.642 18.4002 32.0002 18.042 32.0002 17.6002C32.0002 17.1584 31.642 16.8002 31.2002 16.8002C30.7584 16.8002 30.4002 17.1584 30.4002 17.6002C30.4002 18.042 30.7584 18.4002 31.2002 18.4002Z" fill="#1F1D1C" style="fill:#1F1D1C;fill:color(display-p3 0.1216 0.1137 0.1098);fill-opacity:1;"/>
<path fill-rule="evenodd" clip-rule="evenodd" d="M18.4002 11.2002C14.4237 11.2002 11.2002 14.4237 11.2002 18.4002V29.6002C11.2002 33.5766 14.4237 36.8002 18.4002 36.8002H29.6002C33.5766 36.8002 36.8002 33.5766 36.8002 29.6002V18.4002C36.8002 14.4237 33.5766 11.2002 29.6002 11.2002H18.4002ZM29.6002 12.8002H18.4002C15.3074 12.8002 12.8002 15.3074 12.8002 18.4002V29.6002C12.8002 32.693 15.3074 35.2002 18.4002 35.2002H29.6002C32.693 35.2002 35.2002 32.693 35.2002 29.6002V18.4002C35.2002 15.3074 32.693 12.8002 29.6002 12.8002Z" fill="#1F1D1C" style="fill:#1F1D1C;fill:color(display-p3 0.1216 0.1137 0.1098);fill-opacity:1;"/>
</svg>
