<svg width="35" height="35" viewBox="0 0 35 35" fill="none" xmlns="http://www.w3.org/2000/svg">
<path fill-rule="evenodd" clip-rule="evenodd" d="M27.4332 11.4478C29.5776 11.4478 31.316 9.70942 31.316 7.56497C31.316 5.42052 29.5776 3.6821 27.4332 3.6821C25.2887 3.6821 23.5503 5.42052 23.5503 7.56497C23.5503 9.70942 25.2887 11.4478 27.4332 11.4478Z" fill="#171717" style="fill:#171717;fill:color(display-p3 0.0883 0.0883 0.0883);fill-opacity:1;"/>
<path fill-rule="evenodd" clip-rule="evenodd" d="M27.4332 21.2007C29.5776 21.2007 31.316 19.4623 31.316 17.3179C31.316 15.1735 29.5776 13.4351 27.4332 13.4351C25.2887 13.4351 23.5503 15.1735 23.5503 17.3179C23.5503 19.4623 25.2887 21.2007 27.4332 21.2007Z" fill="#171717" style="fill:#171717;fill:color(display-p3 0.0883 0.0883 0.0883);fill-opacity:1;"/>
<path fill-rule="evenodd" clip-rule="evenodd" d="M27.4332 31.3141C29.5776 31.3141 31.316 29.5757 31.316 27.4313C31.316 25.2868 29.5776 23.5484 27.4332 23.5484C25.2887 23.5484 23.5503 25.2868 23.5503 27.4313C23.5503 29.5757 25.2887 31.3141 27.4332 31.3141Z" fill="#171717" style="fill:#171717;fill:color(display-p3 0.0883 0.0883 0.0883);fill-opacity:1;"/>
<path fill-rule="evenodd" clip-rule="evenodd" d="M17.3198 21.2005C19.4642 21.2005 21.2025 19.4622 21.2025 17.3178C21.2025 15.1734 19.4642 13.435 17.3198 13.435C15.1754 13.435 13.437 15.1734 13.437 17.3178C13.437 19.4622 15.1754 21.2005 17.3198 21.2005Z" fill="#171717" style="fill:#171717;fill:color(display-p3 0.0883 0.0883 0.0883);fill-opacity:1;"/>
<path fill-rule="evenodd" clip-rule="evenodd" d="M17.3198 31.3131C19.4642 31.3131 21.2025 29.5747 21.2025 27.4302C21.2025 25.2858 19.4642 23.5473 17.3198 23.5473C15.1754 23.5473 13.437 25.2858 13.437 27.4302C13.437 29.5747 15.1754 31.3131 17.3198 31.3131Z" fill="#171717" style="fill:#171717;fill:color(display-p3 0.0883 0.0883 0.0883);fill-opacity:1;"/>
<path fill-rule="evenodd" clip-rule="evenodd" d="M7.56696 31.3132C9.71141 31.3132 11.4498 29.5747 11.4498 27.4303C11.4498 25.2858 9.71141 23.5474 7.56696 23.5474C5.4225 23.5474 3.68408 25.2858 3.68408 27.4303C3.68408 29.5747 5.4225 31.3132 7.56696 31.3132Z" fill="#171717" style="fill:#171717;fill:color(display-p3 0.0883 0.0883 0.0883);fill-opacity:1;"/>
</svg>
