<svg width="14" height="14" viewBox="0 0 14 14" fill="none" xmlns="http://www.w3.org/2000/svg">
<g clip-path="url(#clip0_135_550)">
<path d="M8.76015 12.9997C9.37598 13.397 10.1098 13.5701 10.8383 13.49C11.5667 13.4099 12.2454 13.0814 12.7602 12.5597L13.2102 12.1197C13.4074 11.9179 13.5179 11.6469 13.5179 11.3647C13.5179 11.0825 13.4074 10.8115 13.2102 10.6097L11.3002 8.7197C11.1 8.52305 10.8307 8.41285 10.5502 8.41285C10.2696 8.41285 10.0003 8.52305 9.80015 8.7197V8.7197C9.59836 8.91698 9.32736 9.02745 9.04515 9.02745C8.76294 9.02745 8.49194 8.91698 8.29015 8.7197L5.29015 5.7197C5.19007 5.62108 5.1106 5.50354 5.05636 5.37393C5.00211 5.24431 4.97418 5.10521 4.97418 4.9647C4.97418 4.82419 5.00211 4.68509 5.05636 4.55547C5.1106 4.42586 5.19007 4.30832 5.29015 4.2097V4.2097C5.48681 4.0096 5.597 3.74026 5.597 3.4597C5.597 3.17914 5.48681 2.9098 5.29015 2.7097L3.39015 0.8097C3.18836 0.612415 2.91736 0.501953 2.63515 0.501953C2.35294 0.501953 2.08194 0.612415 1.88015 0.8097L1.44015 1.2597C0.918497 1.77444 0.589985 2.4531 0.509854 3.18157C0.429723 3.91003 0.602859 4.64387 1.00015 5.2597C3.0702 8.31043 5.70409 10.9375 8.76015 12.9997V12.9997Z" stroke="#171717" style="stroke:#171717;stroke:color(display-p3 0.0883 0.0883 0.0883);stroke-opacity:1;" stroke-linecap="round" stroke-linejoin="round"/>
</g>
<defs>
<clipPath id="clip0_135_550">
<rect width="14" height="14" fill="white" style="fill:white;fill-opacity:1;"/>
</clipPath>
</defs>
</svg>
