<svg width="48" height="48" viewBox="0 0 48 48" fill="none" xmlns="http://www.w3.org/2000/svg">
<path fill-rule="evenodd" clip-rule="evenodd" d="M37 15.4694L32.3046 33.6944C31.8795 35.3446 29.961 36.008 28.6012 35.1667C27.4878 34.4778 25.1721 33.1174 20.6287 30.6751C19.7249 30.1893 19.4012 28.9234 20.1767 28.0668L22.4394 25.5673L18.7288 27.6006C17.5313 28.2568 16.0506 28.639 14.5221 28.3199C12.4474 27.8867 10.4995 27.11 9.91157 26.8655C8.4314 26.2501 8.63302 24.2898 9.92305 23.7625L34.8345 13.5798C36.0585 13.0794 37.3301 14.1883 37 15.4694ZM10.5284 25.2436C10.463 25.2703 10.4605 25.361 10.5258 25.3881C11.0848 25.6205 12.9228 26.3515 14.8491 26.7536C15.9142 26.976 17.0056 26.7204 17.9599 26.1975L28.7504 20.2847C28.9877 20.1547 29.2253 20.4556 29.0437 20.6562L21.3628 29.1406C21.3279 29.1791 21.3405 29.2412 21.3863 29.2658C25.9451 31.7164 28.2915 33.0936 29.4431 33.806C29.9304 34.1075 30.6122 33.8502 30.7552 33.2953L35.4506 15.0702C35.4523 15.0638 35.446 15.0583 35.4399 15.0608L10.5284 25.2436Z" fill="#1F1D1C" style="fill:#1F1D1C;fill:color(display-p3 0.1216 0.1137 0.1098);fill-opacity:1;"/>
</svg>
