<svg width="48" height="48" viewBox="0 0 48 48" fill="none" xmlns="http://www.w3.org/2000/svg">
<path fill-rule="evenodd" clip-rule="evenodd" d="M20.936 16.5327C21.2467 16.6171 21.458 16.8865 21.5888 17.1808L22.7817 19.8647C22.937 20.2142 22.8706 20.6544 22.6684 20.9791C22.3396 21.5069 21.9665 22.2111 22.2295 22.7746C22.8888 24.1873 23.8017 25.0503 25.1791 25.7191C25.7418 25.9924 26.4413 25.5912 26.9691 25.2555C27.2731 25.0622 27.7019 24.9884 28.0298 25.1375L30.8273 26.4099C31.1162 26.5413 31.3803 26.7504 31.4648 27.0563C31.909 28.6632 29.9691 30.7291 28.4704 30.7291C26.9996 30.7291 25.5432 30.4394 24.1844 29.8766C22.8255 29.3137 21.5908 28.4887 20.5508 27.4487C19.5108 26.4087 18.6858 25.174 18.123 23.8152C17.5601 22.4563 17.2704 20.9999 17.2704 19.5291C17.2704 18.0326 19.3301 16.0964 20.936 16.5327ZM21.4878 20.3022L20.3912 17.8347C20.1617 17.8554 19.8026 17.9798 19.3887 18.3364C18.8316 18.8164 18.6304 19.3313 18.6304 19.5291C18.6304 20.8213 18.8849 22.1009 19.3794 23.2947C19.8739 24.4886 20.5988 25.5733 21.5125 26.487C22.4262 27.4008 23.511 28.1256 24.7048 28.6201C25.8986 29.1146 27.1782 29.3691 28.4704 29.3691C28.6687 29.3691 29.1848 29.1671 29.665 28.6086C30.0234 28.1918 30.1462 27.8315 30.1652 27.6029L27.6272 26.4485C27.359 26.6171 26.9677 26.8495 26.5335 27.0004C26.0609 27.1645 25.3297 27.3041 24.585 26.9425C22.953 26.15 21.8003 25.0707 20.9971 23.3497C20.6597 22.6268 20.7799 21.9163 20.9336 21.4433C21.0811 20.989 21.3145 20.5831 21.4878 20.3022Z" fill="#1F1D1C" style="fill:#1F1D1C;fill:color(display-p3 0.1216 0.1137 0.1098);fill-opacity:1;"/>
<path fill-rule="evenodd" clip-rule="evenodd" d="M24.3999 37.5996C32.1319 37.5996 38.3999 31.3316 38.3999 23.5996C38.3999 15.8676 32.1319 9.59961 24.3999 9.59961C16.6679 9.59961 10.3999 15.8676 10.3999 23.5996C10.3999 25.9327 10.9706 28.1324 11.98 30.0669C12.0756 30.2502 12.1024 30.4623 12.0489 30.662L10.4591 36.5954C10.2997 37.1902 10.844 37.7346 11.4389 37.5752L17.3934 35.9797C17.5919 35.9265 17.8028 35.9526 17.9854 36.0469C19.9071 37.0392 22.088 37.5996 24.3999 37.5996ZM36.7999 23.5996C36.7999 30.4479 31.2482 35.9996 24.3999 35.9996C22.3494 35.9996 20.4196 35.5032 18.7195 34.6253C18.2002 34.3571 17.581 34.2729 16.9793 34.4342L12.3632 35.6711L13.5944 31.0762C13.7566 30.4708 13.6704 29.8479 13.3985 29.3267C12.5055 27.6153 11.9999 25.6689 11.9999 23.5996C11.9999 16.7513 17.5516 11.1996 24.3999 11.1996C31.2482 11.1996 36.7999 16.7513 36.7999 23.5996Z" fill="#1F1D1C" style="fill:#1F1D1C;fill:color(display-p3 0.1216 0.1137 0.1098);fill-opacity:1;"/>
</svg>
